<mxfile host="app.diagrams.net" agent="Mozilla/5.0 (Macintosh; Intel Mac OS X 10_15_7) AppleWebKit/537.36 (KHTML, like Gecko) Chrome/139.0.0.0 Safari/537.36" version="28.1.1">
  <diagram name="Page-1" id="gRerNQaBkb-Szoi5VmmY">
    <mxGraphModel dx="1186" dy="770" grid="1" gridSize="10" guides="1" tooltips="1" connect="1" arrows="1" fold="1" page="1" pageScale="1" pageWidth="850" pageHeight="1100" math="0" shadow="0">
      <root>
        <mxCell id="0" />
        <mxCell id="1" parent="0" />
        <mxCell id="A0R_OUv_vNjZaeRDhLvj-3" value="" style="sketch=0;outlineConnect=0;fontColor=#232F3E;gradientColor=none;fillColor=#C925D1;strokeColor=none;dashed=0;verticalLabelPosition=bottom;verticalAlign=top;align=center;html=1;fontSize=12;fontStyle=0;aspect=fixed;pointerEvents=1;shape=mxgraph.aws4.aurora_instance;" vertex="1" parent="1">
          <mxGeometry x="386" y="600" width="78" height="78" as="geometry" />
        </mxCell>
        <mxCell id="A0R_OUv_vNjZaeRDhLvj-4" value="" style="sketch=0;points=[[0,0,0],[0.25,0,0],[0.5,0,0],[0.75,0,0],[1,0,0],[0,1,0],[0.25,1,0],[0.5,1,0],[0.75,1,0],[1,1,0],[0,0.25,0],[0,0.5,0],[0,0.75,0],[1,0.25,0],[1,0.5,0],[1,0.75,0]];outlineConnect=0;fontColor=#232F3E;fillColor=#8C4FFF;strokeColor=#ffffff;dashed=0;verticalLabelPosition=bottom;verticalAlign=top;align=center;html=1;fontSize=12;fontStyle=0;aspect=fixed;shape=mxgraph.aws4.resourceIcon;resIcon=mxgraph.aws4.route_53;" vertex="1" parent="1">
          <mxGeometry x="371" y="60" width="78" height="78" as="geometry" />
        </mxCell>
        <mxCell id="A0R_OUv_vNjZaeRDhLvj-5" value="Primary region" style="points=[[0,0],[0.25,0],[0.5,0],[0.75,0],[1,0],[1,0.25],[1,0.5],[1,0.75],[1,1],[0.75,1],[0.5,1],[0.25,1],[0,1],[0,0.75],[0,0.5],[0,0.25]];outlineConnect=0;gradientColor=none;html=1;whiteSpace=wrap;fontSize=12;fontStyle=0;container=1;pointerEvents=0;collapsible=0;recursiveResize=0;shape=mxgraph.aws4.group;grIcon=mxgraph.aws4.group_region;strokeColor=#00A4A6;fillColor=none;verticalAlign=top;align=left;spacingLeft=30;fontColor=#147EBA;dashed=1;" vertex="1" parent="1">
          <mxGeometry x="20" y="300" width="380" height="220" as="geometry" />
        </mxCell>
        <mxCell id="A0R_OUv_vNjZaeRDhLvj-7" value="" style="sketch=0;points=[[0,0,0],[0.25,0,0],[0.5,0,0],[0.75,0,0],[1,0,0],[0,1,0],[0.25,1,0],[0.5,1,0],[0.75,1,0],[1,1,0],[0,0.25,0],[0,0.5,0],[0,0.75,0],[1,0.25,0],[1,0.5,0],[1,0.75,0]];gradientDirection=north;outlineConnect=0;fontColor=#232F3E;gradientColor=none;fillColor=#1E262E;strokeColor=#ffffff;dashed=0;verticalLabelPosition=bottom;verticalAlign=top;align=center;html=1;fontSize=12;fontStyle=0;aspect=fixed;shape=mxgraph.aws4.resourceIcon;resIcon=mxgraph.aws4.general;" vertex="1" parent="A0R_OUv_vNjZaeRDhLvj-5">
          <mxGeometry x="160" y="70" width="78" height="78" as="geometry" />
        </mxCell>
        <mxCell id="A0R_OUv_vNjZaeRDhLvj-15" value="Writer Instance" style="text;html=1;align=center;verticalAlign=middle;whiteSpace=wrap;rounded=0;" vertex="1" parent="A0R_OUv_vNjZaeRDhLvj-5">
          <mxGeometry x="160" y="180" width="60" height="30" as="geometry" />
        </mxCell>
        <mxCell id="A0R_OUv_vNjZaeRDhLvj-17" value="Primary Stack" style="text;html=1;align=center;verticalAlign=middle;whiteSpace=wrap;rounded=0;" vertex="1" parent="A0R_OUv_vNjZaeRDhLvj-5">
          <mxGeometry x="160" y="30" width="69" height="30" as="geometry" />
        </mxCell>
        <mxCell id="A0R_OUv_vNjZaeRDhLvj-6" value="Failover region" style="points=[[0,0],[0.25,0],[0.5,0],[0.75,0],[1,0],[1,0.25],[1,0.5],[1,0.75],[1,1],[0.75,1],[0.5,1],[0.25,1],[0,1],[0,0.75],[0,0.5],[0,0.25]];outlineConnect=0;gradientColor=none;html=1;whiteSpace=wrap;fontSize=12;fontStyle=0;container=1;pointerEvents=0;collapsible=0;recursiveResize=0;shape=mxgraph.aws4.group;grIcon=mxgraph.aws4.group_region;strokeColor=#00A4A6;fillColor=none;verticalAlign=top;align=left;spacingLeft=30;fontColor=#147EBA;dashed=1;" vertex="1" parent="1">
          <mxGeometry x="440" y="300" width="380" height="220" as="geometry" />
        </mxCell>
        <mxCell id="A0R_OUv_vNjZaeRDhLvj-8" value="" style="sketch=0;points=[[0,0,0],[0.25,0,0],[0.5,0,0],[0.75,0,0],[1,0,0],[0,1,0],[0.25,1,0],[0.5,1,0],[0.75,1,0],[1,1,0],[0,0.25,0],[0,0.5,0],[0,0.75,0],[1,0.25,0],[1,0.5,0],[1,0.75,0]];gradientDirection=north;outlineConnect=0;fontColor=#232F3E;gradientColor=none;fillColor=#1E262E;strokeColor=#ffffff;dashed=0;verticalLabelPosition=bottom;verticalAlign=top;align=center;html=1;fontSize=12;fontStyle=0;aspect=fixed;shape=mxgraph.aws4.resourceIcon;resIcon=mxgraph.aws4.general;" vertex="1" parent="A0R_OUv_vNjZaeRDhLvj-6">
          <mxGeometry x="151" y="70" width="78" height="78" as="geometry" />
        </mxCell>
        <mxCell id="A0R_OUv_vNjZaeRDhLvj-16" value="Read Instance&lt;div&gt;Automatically upgraded in case of disaster&lt;/div&gt;" style="text;html=1;align=center;verticalAlign=middle;whiteSpace=wrap;rounded=0;" vertex="1" parent="A0R_OUv_vNjZaeRDhLvj-6">
          <mxGeometry x="60" y="180" width="240" height="30" as="geometry" />
        </mxCell>
        <mxCell id="A0R_OUv_vNjZaeRDhLvj-22" value="Failover Stack" style="text;html=1;align=center;verticalAlign=middle;whiteSpace=wrap;rounded=0;" vertex="1" parent="A0R_OUv_vNjZaeRDhLvj-6">
          <mxGeometry x="151" y="30" width="69" height="30" as="geometry" />
        </mxCell>
        <mxCell id="A0R_OUv_vNjZaeRDhLvj-9" value="" style="edgeStyle=orthogonalEdgeStyle;html=1;endArrow=block;elbow=vertical;startArrow=none;endFill=1;strokeColor=#545B64;rounded=0;exitX=0;exitY=1;exitDx=0;exitDy=0;exitPerimeter=0;entryX=0.5;entryY=0;entryDx=0;entryDy=0;" edge="1" parent="1" source="A0R_OUv_vNjZaeRDhLvj-4" target="A0R_OUv_vNjZaeRDhLvj-5">
          <mxGeometry width="100" relative="1" as="geometry">
            <mxPoint x="240" y="180" as="sourcePoint" />
            <mxPoint x="340" y="180" as="targetPoint" />
          </mxGeometry>
        </mxCell>
        <mxCell id="A0R_OUv_vNjZaeRDhLvj-10" value="" style="edgeStyle=orthogonalEdgeStyle;html=1;endArrow=none;elbow=vertical;startArrow=block;startFill=1;strokeColor=#545B64;rounded=0;exitX=0.5;exitY=0;exitDx=0;exitDy=0;" edge="1" parent="1" source="A0R_OUv_vNjZaeRDhLvj-6">
          <mxGeometry width="100" relative="1" as="geometry">
            <mxPoint x="560" y="180" as="sourcePoint" />
            <mxPoint x="450" y="140" as="targetPoint" />
            <Array as="points">
              <mxPoint x="630" y="221" />
              <mxPoint x="451" y="221" />
            </Array>
          </mxGeometry>
        </mxCell>
        <mxCell id="A0R_OUv_vNjZaeRDhLvj-11" value="" style="edgeStyle=orthogonalEdgeStyle;html=1;endArrow=block;elbow=vertical;startArrow=none;endFill=1;strokeColor=#545B64;rounded=0;exitX=0.5;exitY=1;exitDx=0;exitDy=0;" edge="1" parent="1" source="A0R_OUv_vNjZaeRDhLvj-15" target="A0R_OUv_vNjZaeRDhLvj-3">
          <mxGeometry width="100" relative="1" as="geometry">
            <mxPoint x="150" y="580" as="sourcePoint" />
            <mxPoint x="250" y="580" as="targetPoint" />
            <Array as="points">
              <mxPoint x="210" y="640" />
            </Array>
          </mxGeometry>
        </mxCell>
        <mxCell id="A0R_OUv_vNjZaeRDhLvj-12" value="" style="edgeStyle=orthogonalEdgeStyle;html=1;endArrow=block;elbow=vertical;startArrow=none;endFill=1;strokeColor=#545B64;rounded=0;exitX=0.542;exitY=0.867;exitDx=0;exitDy=0;exitPerimeter=0;" edge="1" parent="1" source="A0R_OUv_vNjZaeRDhLvj-16" target="A0R_OUv_vNjZaeRDhLvj-3">
          <mxGeometry width="100" relative="1" as="geometry">
            <mxPoint x="540" y="540" as="sourcePoint" />
            <mxPoint x="640" y="540" as="targetPoint" />
            <Array as="points">
              <mxPoint x="630" y="639" />
            </Array>
          </mxGeometry>
        </mxCell>
        <mxCell id="A0R_OUv_vNjZaeRDhLvj-14" value="DNS Failover" style="text;html=1;align=center;verticalAlign=middle;whiteSpace=wrap;rounded=0;" vertex="1" parent="1">
          <mxGeometry x="380" y="150" width="60" height="30" as="geometry" />
        </mxCell>
      </root>
    </mxGraphModel>
  </diagram>
</mxfile>
